<svg width="32" height="32" viewBox="0 0 32 32" fill="none" xmlns="http://www.w3.org/2000/svg">
  <!-- Background circle -->
  <circle cx="16" cy="16" r="15" fill="#1877f2"/>
  
  <!-- Feed post container -->
  <rect x="6" y="8" width="14" height="10" rx="2" fill="white"/>
  
  <!-- Feed post lines -->
  <rect x="8" y="10" width="10" height="1" fill="#1877f2" rx="0.5"/>
  <rect x="8" y="12" width="8" height="0.8" fill="#42B883" rx="0.4"/>
  <rect x="8" y="13.5" width="6" height="0.8" fill="#42B883" rx="0.4"/>
  <rect x="8" y="15" width="9" height="0.8" fill="#42B883" rx="0.4"/>
  
  <!-- Comment bubble -->
  <path d="M12 19C12 17.9 12.9 17 14 17H22C23.1 17 24 17.9 24 19V23C24 24.1 23.1 25 22 25H16L13 27V25H14C12.9 25 12 24.1 12 23V19Z" fill="white"/>
  
  <!-- Comment lines -->
  <rect x="14" y="19" width="8" height="0.8" fill="#1877f2" rx="0.4"/>
  <rect x="14" y="20.5" width="6" height="0.8" fill="#6B7280" rx="0.4"/>
  <rect x="14" y="22" width="7" height="0.8" fill="#6B7280" rx="0.4"/>
</svg>
